# xmcd CD database file
#
# Track frame offsets:
#	150
#	19710
#	37576
#	55602
#	73473
#	93230
#	108992
#	128372
#	149406
#	172494
#	187139
#	205175
#	227907
#
# Disc length: 3292 seconds
#
# Revision: 0
# Processed by: cddbd v1.5.2PL0 Copyright (c) Steve Scherf et al.
# Submitted via: CDex 1.77
#
DISCID=b60cda0d
DTITLE=Kasia Zawieracz - To co lubie
DYEAR=2016
DGENRE=Jazz
TTITLE0=Ohoty na glupoty
TTITLE1=Piosenka z lekka nuta pesymizmu
TTITLE2=Fruwajaca bossa
TTITLE3=My favorite things
TTITLE4=To maj
TTITLE5=Zawsze chce byc twoim szczesciem
TTITLE6=Angel eyes
TTITLE7=Nie tak chciales
TTITLE8=Blues dla siostry
TTITLE9=Niedokonczona piosenka
TTITLE10=Senny  blues
TTITLE11=Nie powiem nie
TTITLE12=Milosc, ktora nie chce przyjsc
EXTD=YEAR: 2016
EXTT0=
EXTT1=
EXTT2=
EXTT3=
EXTT4=
EXTT5=
EXTT6=
EXTT7=
EXTT8=
EXTT9=
EXTT10=
EXTT11=
EXTT12=
PLAYORDER=
